<svg xmlns="http://www.w3.org/2000/svg" width="179.54000000000002" height="35" viewBox="0 0 179.54000000000002 35"><rect class="svg__rect" x="0" y="0" width="97.07" height="35" fill="#5CB85C"/><rect class="svg__rect" x="95.07" y="0" width="84.47000000000001" height="35" fill="#3C983C"/><path class="svg__text" d="M13.78 19.42L13.78 19.42L15.27 19.42Q15.27 20.15 15.75 20.55Q16.23 20.95 17.12 20.95L17.12 20.95Q17.90 20.95 18.29 20.63Q18.68 20.32 18.68 19.80L18.68 19.80Q18.68 19.24 18.28 18.94Q17.89 18.63 16.85 18.32Q15.82 18.01 15.21 17.63L15.21 17.63Q14.05 16.90 14.05 15.72L14.05 15.72Q14.05 14.69 14.89 14.02Q15.73 13.35 17.07 13.35L17.07 13.35Q17.96 13.35 18.66 13.68Q19.36 14.01 19.75 14.61Q20.15 15.22 20.15 15.96L20.15 15.96L18.68 15.96Q18.68 15.29 18.26 14.91Q17.84 14.54 17.06 14.54L17.06 14.54Q16.33 14.54 15.93 14.85Q15.53 15.16 15.53 15.71L15.53 15.71Q15.53 16.18 15.96 16.50Q16.40 16.81 17.39 17.10Q18.39 17.40 18.99 17.78Q19.60 18.16 19.88 18.65Q20.16 19.13 20.16 19.79L20.16 19.79Q20.16 20.86 19.34 21.49Q18.52 22.12 17.12 22.12L17.12 22.12Q16.20 22.12 15.42 21.77Q14.64 21.43 14.21 20.83Q13.78 20.22 13.78 19.42ZM24.31 19.16L24.31 19.16L24.31 13.47L25.79 13.47L25.79 19.18Q25.79 20.03 26.22 20.48Q26.66 20.93 27.50 20.93L27.50 20.93Q29.21 20.93 29.21 19.13L29.21 19.13L29.21 13.47L30.69 13.47L30.69 19.17Q30.69 20.53 29.82 21.32Q28.95 22.12 27.50 22.12L27.50 22.12Q26.04 22.12 25.17 21.33Q24.31 20.55 24.31 19.16ZM34.99 18.19L34.99 18.19L34.99 17.39Q34.99 16.19 35.42 15.27Q35.84 14.35 36.64 13.85Q37.44 13.35 38.49 13.35L38.49 13.35Q39.90 13.35 40.77 14.12Q41.63 14.89 41.77 16.29L41.77 16.29L40.29 16.29Q40.19 15.37 39.76 14.96Q39.32 14.55 38.49 14.55L38.49 14.55Q37.53 14.55 37.01 15.26Q36.49 15.96 36.48 17.33L36.48 17.33L36.48 18.09Q36.48 19.47 36.97 20.20Q37.47 20.92 38.42 20.92L38.42 20.92Q39.30 20.92 39.73 20.53Q40.17 20.14 40.29 19.22L40.29 19.22L41.77 19.22Q41.64 20.59 40.76 21.35Q39.88 22.12 38.42 22.12L38.42 22.12Q37.40 22.12 36.63 21.63Q35.85 21.15 35.43 20.26Q35.01 19.37 34.99 18.19ZM45.81 18.19L45.81 18.19L45.81 17.39Q45.81 16.19 46.24 15.27Q46.67 14.35 47.47 13.85Q48.27 13.35 49.31 13.35L49.31 13.35Q50.73 13.35 51.59 14.12Q52.45 14.89 52.59 16.29L52.59 16.29L51.11 16.29Q51.01 15.37 50.58 14.96Q50.15 14.55 49.31 14.55L49.31 14.55Q48.35 14.55 47.83 15.26Q47.31 15.96 47.30 17.33L47.30 17.33L47.30 18.09Q47.30 19.47 47.79 20.20Q48.29 20.92 49.24 20.92L49.24 20.92Q50.12 20.92 50.56 20.53Q51.00 20.14 51.11 19.22L51.11 19.22L52.59 19.22Q52.46 20.59 51.58 21.35Q50.70 22.12 49.24 22.12L49.24 22.12Q48.23 22.12 47.45 21.63Q46.67 21.15 46.25 20.26Q45.83 19.37 45.81 18.19ZM62.48 22L56.90 22L56.90 13.47L62.44 13.47L62.44 14.66L58.39 14.66L58.39 17.02L61.89 17.02L61.89 18.19L58.39 18.19L58.39 20.82L62.48 20.82L62.48 22ZM66.24 19.42L66.24 19.42L67.72 19.42Q67.72 20.15 68.21 20.55Q68.69 20.95 69.58 20.95L69.58 20.95Q70.36 20.95 70.75 20.63Q71.14 20.32 71.14 19.80L71.14 19.80Q71.14 19.24 70.74 18.94Q70.34 18.63 69.31 18.32Q68.28 18.01 67.67 17.63L67.67 17.63Q66.51 16.90 66.51 15.72L66.51 15.72Q66.51 14.69 67.35 14.02Q68.19 13.35 69.53 13.35L69.53 13.35Q70.42 13.35 71.12 13.68Q71.81 14.01 72.21 14.61Q72.61 15.22 72.61 15.96L72.61 15.96L71.14 15.96Q71.14 15.29 70.72 14.91Q70.30 14.54 69.52 14.54L69.52 14.54Q68.79 14.54 68.39 14.85Q67.99 15.16 67.99 15.71L67.99 15.71Q67.99 16.18 68.42 16.50Q68.86 16.81 69.85 17.10Q70.85 17.40 71.45 17.78Q72.06 18.16 72.34 18.65Q72.62 19.13 72.62 19.79L72.62 19.79Q72.62 20.86 71.80 21.49Q70.98 22.12 69.58 22.12L69.58 22.12Q68.66 22.12 67.88 21.77Q67.10 21.43 66.67 20.83Q66.24 20.22 66.24 19.42ZM76.47 19.42L76.47 19.42L77.96 19.42Q77.96 20.15 78.44 20.55Q78.92 20.95 79.81 20.95L79.81 20.95Q80.59 20.95 80.98 20.63Q81.37 20.32 81.37 19.80L81.37 19.80Q81.37 19.24 80.97 18.94Q80.57 18.63 79.54 18.32Q78.51 18.01 77.90 17.63L77.90 17.63Q76.74 16.90 76.74 15.72L76.74 15.72Q76.74 14.69 77.58 14.02Q78.42 13.35 79.76 13.35L79.76 13.35Q80.65 13.35 81.35 13.68Q82.05 14.01 82.44 14.61Q82.84 15.22 82.84 15.96L82.84 15.96L81.37 15.96Q81.37 15.29 80.95 14.91Q80.53 14.54 79.75 14.54L79.75 14.54Q79.02 14.54 78.62 14.85Q78.22 15.16 78.22 15.71L78.22 15.71Q78.22 16.18 78.65 16.50Q79.09 16.81 80.08 17.10Q81.08 17.40 81.68 17.78Q82.29 18.16 82.57 18.65Q82.85 19.13 82.85 19.79L82.85 19.79Q82.85 20.86 82.03 21.49Q81.21 22.12 79.81 22.12L79.81 22.12Q78.89 22.12 78.11 21.77Q77.33 21.43 76.90 20.83Q76.47 20.22 76.47 19.42Z" fill="#FFFFFF"/><path class="svg__text" d="M108.61 16.30L108.61 16.30Q108.61 15.45 109.05 14.80Q109.49 14.14 110.24 13.79Q110.99 13.43 111.90 13.43L111.90 13.43Q113.71 13.43 114.76 14.50Q115.80 15.57 115.80 17.57L115.80 17.57Q115.80 19.01 115.24 20.05Q114.68 21.09 113.67 21.63Q112.66 22.17 111.33 22.17L111.33 22.17Q110.62 22.17 109.97 22.01Q109.32 21.84 108.87 21.55L108.87 21.55L109.73 19.85Q110.34 20.28 111.27 20.28L111.27 20.28Q112.18 20.28 112.73 19.79Q113.29 19.29 113.39 18.34L113.39 18.34Q112.67 18.95 111.50 18.95L111.50 18.95Q110.71 18.95 110.05 18.62Q109.39 18.29 109.00 17.68Q108.61 17.08 108.61 16.30ZM110.92 16.19L110.92 16.19Q110.92 16.67 111.24 16.96Q111.55 17.25 112.07 17.25L112.07 17.25Q112.59 17.25 112.91 16.96Q113.23 16.66 113.23 16.18L113.23 16.18Q113.23 15.71 112.91 15.42Q112.60 15.12 112.06 15.12L112.06 15.12Q111.55 15.12 111.24 15.41Q110.92 15.70 110.92 16.19ZM122.00 16.78L119.97 16.78L119.97 13.60L126.93 13.60L126.93 15.09L123.96 22L121.38 22L124.21 15.48L122.00 15.48L122.00 16.78ZM132.34 23.20L130.32 23.20L134.28 11.90L136.30 11.90L132.34 23.20ZM140.86 15.44L139.29 15.44L139.29 13.60L143.23 13.60L143.23 22L140.86 22L140.86 15.44ZM147.98 17.80L147.98 17.80Q147.98 16.45 148.45 15.46Q148.92 14.46 149.76 13.95Q150.60 13.43 151.68 13.43L151.68 13.43Q152.75 13.43 153.59 13.95Q154.43 14.46 154.90 15.46Q155.38 16.45 155.38 17.80L155.38 17.80Q155.38 19.15 154.90 20.15Q154.43 21.14 153.59 21.65Q152.75 22.17 151.68 22.17L151.68 22.17Q150.60 22.17 149.76 21.65Q148.92 21.14 148.45 20.15Q147.98 19.16 147.98 17.80ZM150.36 17.80L150.36 17.80Q150.36 19.06 150.72 19.64Q151.07 20.22 151.68 20.22L151.68 20.22Q152.28 20.22 152.64 19.64Q152.99 19.06 152.99 17.80L152.99 17.80Q152.99 16.54 152.64 15.96Q152.28 15.38 151.68 15.38L151.68 15.38Q151.07 15.38 150.72 15.96Q150.36 16.54 150.36 17.80ZM159.68 17.80L159.68 17.80Q159.68 16.45 160.15 15.46Q160.62 14.46 161.46 13.95Q162.30 13.43 163.38 13.43L163.38 13.43Q164.45 13.43 165.29 13.95Q166.13 14.46 166.60 15.46Q167.08 16.45 167.08 17.80L167.08 17.80Q167.08 19.15 166.60 20.15Q166.13 21.14 165.29 21.65Q164.45 22.17 163.38 22.17L163.38 22.17Q162.30 22.17 161.46 21.65Q160.62 21.14 160.15 20.15Q159.68 19.16 159.68 17.80ZM162.06 17.80L162.06 17.80Q162.06 19.06 162.42 19.64Q162.77 20.22 163.38 20.22L163.38 20.22Q163.98 20.22 164.34 19.64Q164.69 19.06 164.69 17.80L164.69 17.80Q164.69 16.54 164.34 15.96Q163.98 15.38 163.38 15.38L163.38 15.38Q162.77 15.38 162.42 15.96Q162.06 16.54 162.06 17.80Z" fill="#FFFFFF" x="108.07"/></svg>